# xmcd
#
# Track frame offsets: 
#        150
#        19497
#        35662
#        50475
#
# Disc length: 976 seconds
#
# Revision: 0
# Processed by: cddbd v1.5.1PL0 Copyright (c) Steve Scherf et al.
# Submitted via: ExactAudioCopy v0.95b3
#
DISCID=3203ce04
DTITLE=Hauser, Philipp Frank - Members Only
DYEAR=1995
DGENRE=Blues
TTITLE0=Members only
TTITLE1=Ain't gonna give it up
TTITLE2=I'm leaving home but I'm going home
TTITLE3=Members only
EXTD=
EXTT0=
EXTT1=
EXTT2=
EXTT3=
PLAYORDER=
